<mxfile host="app.diagrams.net" agent="Mozilla/5.0 (Windows NT 10.0; Win64; x64) AppleWebKit/537.36 (KHTML, like Gecko) Chrome/135.0.0.0 Safari/537.36" version="26.2.14">
  <diagram name="Page-1" id="mwGYnRjuYwJU7W319ciS">
    <mxGraphModel dx="1953" dy="695" grid="1" gridSize="10" guides="1" tooltips="1" connect="1" arrows="1" fold="1" page="1" pageScale="1" pageWidth="850" pageHeight="1100" math="0" shadow="0">
      <root>
        <mxCell id="0" />
        <mxCell id="1" parent="0" />
        <mxCell id="ROTOrBHlhi2o-e-uHthp-1" value="&lt;span style=&quot;font-size: 14px;&quot;&gt;&lt;b&gt;Μέλος της&amp;nbsp;&lt;/b&gt;&lt;/span&gt;&lt;div&gt;&lt;span style=&quot;font-size: 14px;&quot;&gt;&lt;b&gt;Επιτροπής&amp;nbsp;&lt;/b&gt;&lt;/span&gt;&lt;div&gt;&lt;span style=&quot;font-size: 14px;&quot;&gt;&lt;b&gt;Πρακτικής&lt;/b&gt;&lt;/span&gt;&lt;/div&gt;&lt;/div&gt;" style="shape=umlActor;verticalLabelPosition=bottom;verticalAlign=top;html=1;outlineConnect=0;" vertex="1" parent="1">
          <mxGeometry x="20" y="320" width="50" height="80" as="geometry" />
        </mxCell>
        <mxCell id="ROTOrBHlhi2o-e-uHthp-2" value="" style="shape=umlBoundary;whiteSpace=wrap;html=1;" vertex="1" parent="1">
          <mxGeometry x="220" y="170" width="100" height="80" as="geometry" />
        </mxCell>
        <mxCell id="ROTOrBHlhi2o-e-uHthp-3" value="Homepage" style="text;html=1;align=center;verticalAlign=middle;resizable=0;points=[];autosize=1;strokeColor=none;fillColor=none;fontSize=14;fontStyle=1" vertex="1" parent="1">
          <mxGeometry x="230" y="140" width="90" height="30" as="geometry" />
        </mxCell>
        <mxCell id="ROTOrBHlhi2o-e-uHthp-4" value="" style="endArrow=classic;html=1;rounded=0;strokeColor=#0066CC;" edge="1" parent="1" source="ROTOrBHlhi2o-e-uHthp-1" target="ROTOrBHlhi2o-e-uHthp-2">
          <mxGeometry width="50" height="50" relative="1" as="geometry">
            <mxPoint x="160" y="398" as="sourcePoint" />
            <mxPoint x="660" y="520" as="targetPoint" />
          </mxGeometry>
        </mxCell>
        <mxCell id="ROTOrBHlhi2o-e-uHthp-5" value="Επιλογή ανάθεσης&amp;nbsp;&lt;div&gt;επιβλέποντα καθηγητή&amp;nbsp;&lt;/div&gt;&lt;div&gt;σε πρακτική άσκηση&lt;/div&gt;" style="text;html=1;align=center;verticalAlign=middle;resizable=0;points=[];autosize=1;strokeColor=none;fillColor=none;rotation=-30;fontSize=13;fontStyle=2;fontColor=#0066CC;" vertex="1" parent="1">
          <mxGeometry x="50" y="230" width="160" height="60" as="geometry" />
        </mxCell>
        <mxCell id="ROTOrBHlhi2o-e-uHthp-6" value="" style="shape=umlBoundary;whiteSpace=wrap;html=1;" vertex="1" parent="1">
          <mxGeometry x="220" y="320" width="100" height="80" as="geometry" />
        </mxCell>
        <mxCell id="ROTOrBHlhi2o-e-uHthp-7" value="Εμφάνιση πληροφοριών φοιτητή και φόρμα επιλογής στρατηγικής" style="ellipse;shape=umlControl;whiteSpace=wrap;html=1;fontStyle=0" vertex="1" parent="1">
          <mxGeometry x="410" y="230" width="110" height="110" as="geometry" />
        </mxCell>
        <mxCell id="ROTOrBHlhi2o-e-uHthp-8" value="" style="endArrow=classic;html=1;rounded=0;" edge="1" parent="1" source="ROTOrBHlhi2o-e-uHthp-2" target="ROTOrBHlhi2o-e-uHthp-7">
          <mxGeometry width="50" height="50" relative="1" as="geometry">
            <mxPoint x="400" y="420" as="sourcePoint" />
            <mxPoint x="450" y="370" as="targetPoint" />
          </mxGeometry>
        </mxCell>
        <mxCell id="ROTOrBHlhi2o-e-uHthp-9" value="" style="endArrow=classic;html=1;rounded=0;" edge="1" parent="1" source="ROTOrBHlhi2o-e-uHthp-7" target="ROTOrBHlhi2o-e-uHthp-6">
          <mxGeometry width="50" height="50" relative="1" as="geometry">
            <mxPoint x="400" y="420" as="sourcePoint" />
            <mxPoint x="450" y="370" as="targetPoint" />
          </mxGeometry>
        </mxCell>
        <mxCell id="ROTOrBHlhi2o-e-uHthp-10" value="" style="ellipse;shape=umlEntity;whiteSpace=wrap;html=1;" vertex="1" parent="1">
          <mxGeometry x="580" y="245" width="80" height="80" as="geometry" />
        </mxCell>
        <mxCell id="ROTOrBHlhi2o-e-uHthp-11" value="Στρατηγική" style="text;html=1;align=center;verticalAlign=middle;resizable=0;points=[];autosize=1;strokeColor=none;fillColor=none;fontSize=14;fontStyle=1" vertex="1" parent="1">
          <mxGeometry x="575" y="210" width="90" height="30" as="geometry" />
        </mxCell>
        <mxCell id="ROTOrBHlhi2o-e-uHthp-12" value="" style="endArrow=classic;html=1;rounded=0;" edge="1" parent="1" source="ROTOrBHlhi2o-e-uHthp-7" target="ROTOrBHlhi2o-e-uHthp-10">
          <mxGeometry width="50" height="50" relative="1" as="geometry">
            <mxPoint x="400" y="420" as="sourcePoint" />
            <mxPoint x="450" y="370" as="targetPoint" />
          </mxGeometry>
        </mxCell>
        <mxCell id="ROTOrBHlhi2o-e-uHthp-13" value="" style="endArrow=classic;html=1;rounded=0;" edge="1" parent="1" source="ROTOrBHlhi2o-e-uHthp-1" target="ROTOrBHlhi2o-e-uHthp-6">
          <mxGeometry width="50" height="50" relative="1" as="geometry">
            <mxPoint x="400" y="420" as="sourcePoint" />
            <mxPoint x="450" y="370" as="targetPoint" />
          </mxGeometry>
        </mxCell>
        <mxCell id="ROTOrBHlhi2o-e-uHthp-14" value="Επιλογή&amp;nbsp;&lt;div&gt;στρατηγικής&lt;/div&gt;" style="text;html=1;align=center;verticalAlign=middle;resizable=0;points=[];autosize=1;strokeColor=none;fillColor=none;fontSize=13;fontStyle=2" vertex="1" parent="1">
          <mxGeometry x="115" y="315" width="90" height="40" as="geometry" />
        </mxCell>
        <mxCell id="ROTOrBHlhi2o-e-uHthp-15" value="View Progress" style="text;html=1;align=center;verticalAlign=middle;resizable=0;points=[];autosize=1;strokeColor=none;fillColor=none;fontStyle=1;fontSize=14;" vertex="1" parent="1">
          <mxGeometry x="220" y="285" width="110" height="30" as="geometry" />
        </mxCell>
        <mxCell id="ROTOrBHlhi2o-e-uHthp-16" value="Αναζήτηση καθηγητή με βάση την στρατηγική" style="ellipse;shape=umlControl;whiteSpace=wrap;html=1;fontStyle=0" vertex="1" parent="1">
          <mxGeometry x="410" y="370" width="110" height="110" as="geometry" />
        </mxCell>
        <mxCell id="ROTOrBHlhi2o-e-uHthp-17" value="" style="endArrow=classic;html=1;rounded=0;" edge="1" parent="1" source="ROTOrBHlhi2o-e-uHthp-16" target="ROTOrBHlhi2o-e-uHthp-10">
          <mxGeometry width="50" height="50" relative="1" as="geometry">
            <mxPoint x="400" y="420" as="sourcePoint" />
            <mxPoint x="450" y="370" as="targetPoint" />
          </mxGeometry>
        </mxCell>
        <mxCell id="ROTOrBHlhi2o-e-uHthp-18" value="" style="endArrow=classic;html=1;rounded=0;" edge="1" parent="1" source="ROTOrBHlhi2o-e-uHthp-6" target="ROTOrBHlhi2o-e-uHthp-16">
          <mxGeometry width="50" height="50" relative="1" as="geometry">
            <mxPoint x="400" y="420" as="sourcePoint" />
            <mxPoint x="450" y="370" as="targetPoint" />
          </mxGeometry>
        </mxCell>
        <mxCell id="ROTOrBHlhi2o-e-uHthp-19" value="" style="ellipse;shape=umlEntity;whiteSpace=wrap;html=1;" vertex="1" parent="1">
          <mxGeometry x="610" y="390" width="80" height="80" as="geometry" />
        </mxCell>
        <mxCell id="ROTOrBHlhi2o-e-uHthp-20" value="Βάση Δεδομένων" style="text;html=1;align=center;verticalAlign=middle;resizable=0;points=[];autosize=1;strokeColor=none;fillColor=none;fontSize=14;fontStyle=1" vertex="1" parent="1">
          <mxGeometry x="585" y="360" width="130" height="30" as="geometry" />
        </mxCell>
        <mxCell id="ROTOrBHlhi2o-e-uHthp-21" value="" style="endArrow=classic;html=1;rounded=0;" edge="1" parent="1" source="ROTOrBHlhi2o-e-uHthp-16" target="ROTOrBHlhi2o-e-uHthp-19">
          <mxGeometry width="50" height="50" relative="1" as="geometry">
            <mxPoint x="400" y="420" as="sourcePoint" />
            <mxPoint x="450" y="370" as="targetPoint" />
          </mxGeometry>
        </mxCell>
        <mxCell id="ROTOrBHlhi2o-e-uHthp-22" value="" style="ellipse;shape=umlEntity;whiteSpace=wrap;html=1;" vertex="1" parent="1">
          <mxGeometry x="610" y="560" width="80" height="80" as="geometry" />
        </mxCell>
        <mxCell id="ROTOrBHlhi2o-e-uHthp-23" value="Θέση Πρακτικής&amp;nbsp;&lt;div&gt;Άσκησης&lt;/div&gt;" style="text;html=1;align=center;verticalAlign=middle;resizable=0;points=[];autosize=1;strokeColor=none;fillColor=none;fontSize=14;fontStyle=1" vertex="1" parent="1">
          <mxGeometry x="585" y="510" width="130" height="50" as="geometry" />
        </mxCell>
        <mxCell id="ROTOrBHlhi2o-e-uHthp-24" value="" style="endArrow=classic;html=1;rounded=0;" edge="1" parent="1" source="ROTOrBHlhi2o-e-uHthp-25" target="ROTOrBHlhi2o-e-uHthp-22">
          <mxGeometry width="50" height="50" relative="1" as="geometry">
            <mxPoint x="135" y="550" as="sourcePoint" />
            <mxPoint x="185" y="500" as="targetPoint" />
          </mxGeometry>
        </mxCell>
        <mxCell id="ROTOrBHlhi2o-e-uHthp-25" value="Καταχώρηση επιβλέποντα καθηγητή στην πρακτική άσκηση" style="ellipse;shape=umlControl;whiteSpace=wrap;html=1;fontStyle=0" vertex="1" parent="1">
          <mxGeometry x="400" y="530" width="110" height="110" as="geometry" />
        </mxCell>
        <mxCell id="ROTOrBHlhi2o-e-uHthp-26" value="" style="endArrow=classic;html=1;rounded=0;" edge="1" parent="1" source="ROTOrBHlhi2o-e-uHthp-16" target="ROTOrBHlhi2o-e-uHthp-25">
          <mxGeometry width="50" height="50" relative="1" as="geometry">
            <mxPoint x="400" y="420" as="sourcePoint" />
            <mxPoint x="560" y="490" as="targetPoint" />
          </mxGeometry>
        </mxCell>
        <mxCell id="ROTOrBHlhi2o-e-uHthp-28" value="" style="endArrow=classic;html=1;rounded=0;" edge="1" parent="1" source="ROTOrBHlhi2o-e-uHthp-25" target="ROTOrBHlhi2o-e-uHthp-19">
          <mxGeometry width="50" height="50" relative="1" as="geometry">
            <mxPoint x="440" y="501.6" as="sourcePoint" />
            <mxPoint x="650.0319616511379" y="510.0012784660456" as="targetPoint" />
          </mxGeometry>
        </mxCell>
        <mxCell id="ROTOrBHlhi2o-e-uHthp-29" value="Βρέθηκε&amp;nbsp;&lt;div&gt;καθηγητής&lt;/div&gt;" style="text;html=1;align=center;verticalAlign=middle;resizable=0;points=[];autosize=1;strokeColor=none;fillColor=none;fontStyle=2;fontSize=13;" vertex="1" parent="1">
          <mxGeometry x="460" y="480" width="80" height="40" as="geometry" />
        </mxCell>
        <mxCell id="ROTOrBHlhi2o-e-uHthp-30" value="" style="shape=umlBoundary;whiteSpace=wrap;html=1;" vertex="1" parent="1">
          <mxGeometry x="90" y="540" width="100" height="80" as="geometry" />
        </mxCell>
        <mxCell id="ROTOrBHlhi2o-e-uHthp-31" value="Completed&amp;nbsp;&lt;div&gt;Assignment&lt;/div&gt;" style="text;html=1;align=center;verticalAlign=middle;resizable=0;points=[];autosize=1;strokeColor=none;fillColor=none;fontSize=14;fontStyle=1" vertex="1" parent="1">
          <mxGeometry x="90" y="620" width="100" height="50" as="geometry" />
        </mxCell>
        <mxCell id="ROTOrBHlhi2o-e-uHthp-32" value="Εμφάνιση παραθύρου επιβεβαίωσης" style="ellipse;shape=umlControl;whiteSpace=wrap;html=1;fontStyle=0" vertex="1" parent="1">
          <mxGeometry x="250" y="600" width="110" height="110" as="geometry" />
        </mxCell>
        <mxCell id="ROTOrBHlhi2o-e-uHthp-33" value="" style="endArrow=classic;html=1;rounded=0;" edge="1" parent="1" source="ROTOrBHlhi2o-e-uHthp-32" target="ROTOrBHlhi2o-e-uHthp-30">
          <mxGeometry width="50" height="50" relative="1" as="geometry">
            <mxPoint x="400" y="420" as="sourcePoint" />
            <mxPoint x="450" y="370" as="targetPoint" />
          </mxGeometry>
        </mxCell>
        <mxCell id="ROTOrBHlhi2o-e-uHthp-34" value="" style="endArrow=classic;html=1;rounded=0;" edge="1" parent="1" source="ROTOrBHlhi2o-e-uHthp-25" target="ROTOrBHlhi2o-e-uHthp-32">
          <mxGeometry width="50" height="50" relative="1" as="geometry">
            <mxPoint x="400" y="420" as="sourcePoint" />
            <mxPoint x="450" y="370" as="targetPoint" />
          </mxGeometry>
        </mxCell>
        <mxCell id="ROTOrBHlhi2o-e-uHthp-35" value="" style="endArrow=classic;html=1;rounded=0;" edge="1" parent="1" source="ROTOrBHlhi2o-e-uHthp-1" target="ROTOrBHlhi2o-e-uHthp-30">
          <mxGeometry width="50" height="50" relative="1" as="geometry">
            <mxPoint x="400" y="420" as="sourcePoint" />
            <mxPoint x="450" y="370" as="targetPoint" />
            <Array as="points">
              <mxPoint x="90" y="410" />
            </Array>
          </mxGeometry>
        </mxCell>
        <mxCell id="ROTOrBHlhi2o-e-uHthp-36" value="Εμφάνιση σελίδας πληροφοριών φοιτητή και επιβλέποντα καθηγητή" style="ellipse;shape=umlControl;whiteSpace=wrap;html=1;fontStyle=0" vertex="1" parent="1">
          <mxGeometry x="-110" y="520" width="130" height="125" as="geometry" />
        </mxCell>
        <mxCell id="ROTOrBHlhi2o-e-uHthp-37" value="" style="endArrow=classic;html=1;rounded=0;" edge="1" parent="1" source="ROTOrBHlhi2o-e-uHthp-30" target="ROTOrBHlhi2o-e-uHthp-36">
          <mxGeometry width="50" height="50" relative="1" as="geometry">
            <mxPoint x="384.21" y="464.81" as="sourcePoint" />
            <mxPoint x="-0.0009892780599685125" y="605.1800680068445" as="targetPoint" />
          </mxGeometry>
        </mxCell>
        <mxCell id="ROTOrBHlhi2o-e-uHthp-39" value="" style="shape=umlBoundary;whiteSpace=wrap;html=1;" vertex="1" parent="1">
          <mxGeometry x="-160" y="350" width="100" height="80" as="geometry" />
        </mxCell>
        <mxCell id="ROTOrBHlhi2o-e-uHthp-40" value="View Progress" style="text;html=1;align=center;verticalAlign=middle;resizable=0;points=[];autosize=1;strokeColor=none;fillColor=none;fontStyle=1;fontSize=14;" vertex="1" parent="1">
          <mxGeometry x="-150" y="320" width="110" height="30" as="geometry" />
        </mxCell>
        <mxCell id="ROTOrBHlhi2o-e-uHthp-41" value="" style="endArrow=classic;html=1;rounded=0;" edge="1" parent="1" source="ROTOrBHlhi2o-e-uHthp-36" target="ROTOrBHlhi2o-e-uHthp-39">
          <mxGeometry width="50" height="50" relative="1" as="geometry">
            <mxPoint x="400" y="420" as="sourcePoint" />
            <mxPoint x="450" y="370" as="targetPoint" />
          </mxGeometry>
        </mxCell>
        <mxCell id="ROTOrBHlhi2o-e-uHthp-42" value="" style="endArrow=classic;html=1;rounded=0;" edge="1" parent="1" source="ROTOrBHlhi2o-e-uHthp-36" target="ROTOrBHlhi2o-e-uHthp-19">
          <mxGeometry width="50" height="50" relative="1" as="geometry">
            <mxPoint x="260" y="550" as="sourcePoint" />
            <mxPoint x="720" y="420" as="targetPoint" />
            <Array as="points">
              <mxPoint x="-45" y="730" />
              <mxPoint x="290" y="730" />
              <mxPoint x="730" y="730" />
              <mxPoint x="730" y="430" />
            </Array>
          </mxGeometry>
        </mxCell>
        <mxCell id="ROTOrBHlhi2o-e-uHthp-44" value="" style="endArrow=classic;html=1;rounded=0;" edge="1" parent="1" source="ROTOrBHlhi2o-e-uHthp-1" target="ROTOrBHlhi2o-e-uHthp-39">
          <mxGeometry width="50" height="50" relative="1" as="geometry">
            <mxPoint x="330" y="500" as="sourcePoint" />
            <mxPoint x="380" y="450" as="targetPoint" />
          </mxGeometry>
        </mxCell>
        <mxCell id="ROTOrBHlhi2o-e-uHthp-45" value="Εμφάνιση μηνύματος αποτυχίας" style="ellipse;shape=umlControl;whiteSpace=wrap;html=1;fontStyle=0;strokeColor=light-dark(#FF3333,#ED0202);fontColor=light-dark(#FF3333,#ED0202);" vertex="1" parent="1">
          <mxGeometry x="250" y="505" width="80" height="90" as="geometry" />
        </mxCell>
        <mxCell id="ROTOrBHlhi2o-e-uHthp-46" value="" style="endArrow=classic;html=1;rounded=0;strokeColor=light-dark(#FF3333,#ED0202);" edge="1" parent="1" source="ROTOrBHlhi2o-e-uHthp-16" target="ROTOrBHlhi2o-e-uHthp-45">
          <mxGeometry width="50" height="50" relative="1" as="geometry">
            <mxPoint x="330" y="500" as="sourcePoint" />
            <mxPoint x="380" y="450" as="targetPoint" />
          </mxGeometry>
        </mxCell>
        <mxCell id="ROTOrBHlhi2o-e-uHthp-47" value="Δεν βρέθηκε&amp;nbsp;&lt;div&gt;καθηγητής&lt;/div&gt;" style="text;html=1;align=center;verticalAlign=middle;resizable=0;points=[];autosize=1;strokeColor=none;fillColor=none;fontSize=13;fontStyle=2;fontColor=light-dark(#FF3333,#ED0202);rotation=-30;" vertex="1" parent="1">
          <mxGeometry x="290" y="440" width="100" height="40" as="geometry" />
        </mxCell>
        <mxCell id="ROTOrBHlhi2o-e-uHthp-49" value="" style="endArrow=classic;html=1;rounded=0;strokeColor=light-dark(#FF3333,#ED0202);" edge="1" parent="1" source="ROTOrBHlhi2o-e-uHthp-45" target="ROTOrBHlhi2o-e-uHthp-50">
          <mxGeometry width="50" height="50" relative="1" as="geometry">
            <mxPoint x="425" y="457" as="sourcePoint" />
            <mxPoint x="307" y="509" as="targetPoint" />
          </mxGeometry>
        </mxCell>
        <mxCell id="ROTOrBHlhi2o-e-uHthp-50" value="" style="shape=umlBoundary;whiteSpace=wrap;html=1;strokeColor=light-dark(#FF3333,#ED0202);" vertex="1" parent="1">
          <mxGeometry x="120" y="420" width="100" height="80" as="geometry" />
        </mxCell>
        <mxCell id="ROTOrBHlhi2o-e-uHthp-51" value="View Progress" style="text;html=1;align=center;verticalAlign=middle;resizable=0;points=[];autosize=1;strokeColor=none;fillColor=none;fontStyle=1;fontSize=14;fontColor=light-dark(#FF3333,#ED0202);" vertex="1" parent="1">
          <mxGeometry x="115" y="390" width="110" height="30" as="geometry" />
        </mxCell>
      </root>
    </mxGraphModel>
  </diagram>
</mxfile>
